<svg xmlns="http://www.w3.org/2000/svg" width="128" height="128" viewBox="0 0 128 128" fill="none">
    <rect width="128" height="128" rx="24" fill="#FF8A1E"/>
    <path d="M42 40H86C89.3137 40 92 42.6863 92 46V82C92 85.3137 89.3137 88 86 88H42C38.6863 88 36 85.3137 36 82V46C36 42.6863 38.6863 40 42 40Z" fill="white"/>
    <path d="M47 53C47 51.8954 47.8954 51 49 51H79C80.1046 51 81 51.8954 81 53C81 54.1046 80.1046 55 79 55H49C47.8954 55 47 54.1046 47 53Z" fill="#FF8A1E"/>
    <path d="M47 63C47 61.8954 47.8954 61 49 61H72C73.1046 61 74 61.8954 74 63C74 64.1046 73.1046 65 72 65H49C47.8954 65 47 64.1046 47 63Z" fill="#FF8A1E"/>
    <path d="M47 73C47 71.8954 47.8954 71 49 71H66C67.1046 71 68 71.8954 68 73C68 74.1046 67.1046 75 66 75H49C47.8954 75 47 74.1046 47 73Z" fill="#FF8A1E"/>
</svg>